<svg width="32" height="32" viewBox="0 0 32 32" fill="none" xmlns="http://www.w3.org/2000/svg">
<rect width="32" height="32" rx="7" fill="#171717"/>
<path d="M25.3174 10.1925L16.5724 5.3966C16.3969 5.30041 16.2001 5.25 16 5.25C15.7999 5.25 15.6031 5.30041 15.4276 5.3966L6.6826 10.1925C6.495 10.2953 6.33845 10.4467 6.22936 10.631C6.12026 10.8152 6.06263 11.0254 6.0625 11.2396V20.7597C6.06263 20.9739 6.12026 21.1841 6.22936 21.3683C6.33845 21.5526 6.495 21.704 6.6826 21.8068L15.4276 26.6027C15.603 26.6993 15.7999 26.75 16 26.75C16.2001 26.75 16.397 26.6993 16.5724 26.6027L25.3174 21.8068C25.505 21.704 25.6615 21.5526 25.7706 21.3683C25.8797 21.1841 25.9374 20.9739 25.9375 20.7597V11.2396C25.9374 11.0254 25.8797 10.8152 25.7706 10.631C25.6615 10.4467 25.505 10.2953 25.3174 10.1925ZM15.8092 6.09538C15.8675 6.06277 15.9332 6.04566 16 6.04566C16.0668 6.04566 16.1325 6.06277 16.1908 6.09538L24.8116 10.8235L16 15.6532L7.18842 10.8235L15.8092 6.09538ZM7.0642 21.1091C7.00162 21.0748 6.9494 21.0242 6.91303 20.9628C6.87667 20.9013 6.85748 20.8311 6.8575 20.7597V11.5492L15.6025 16.3431V25.7905L7.0642 21.1091ZM24.9358 21.1091L16.3975 25.7875V16.3431L25.1425 11.5492V20.7597C25.1423 20.831 25.1231 20.9009 25.0867 20.9622C25.0504 21.0235 24.9982 21.0738 24.9358 21.1081V21.1091Z" fill="#FF924D"/>
</svg>
